<?xml version="1.0" encoding="UTF-8"?>
<mxfile host="app.diagrams.net" modified="2024-01-01T00:00:00.000Z" agent="5.0" etag="abc123" version="22.1.11" type="device">
  <diagram name="EFund Frontend C4 Component Diagram" id="c7558073-3199-34d8-9f00-42111426c3f3">
    <mxGraphModel dx="1422" dy="794" grid="1" gridSize="10" guides="1" tooltips="1" connect="1" arrows="1" fold="1" page="1" pageScale="1" pageWidth="1169" pageHeight="827" background="none" math="0" shadow="0">
      <root>
        <mxCell id="0" />
        <mxCell id="1" parent="0" />
        
        <!-- Title -->
        <mxCell id="title" value="EFund Frontend - Simplified Component Diagram (Level 3)" style="text;html=1;strokeColor=none;fillColor=none;align=center;verticalAlign=middle;whiteSpace=wrap;rounded=0;fontSize=18;fontStyle=1;" vertex="1" parent="1">
          <mxGeometry x="300" y="20" width="600" height="30" as="geometry" />
        </mxCell>
        
        <!-- External Systems -->
        <mxCell id="googleOAuth" value="&lt;b&gt;Google OAuth&lt;/b&gt;&lt;br/&gt;[External System]&lt;br/&gt;&lt;br/&gt;Third-party authentication" style="rounded=1;whiteSpace=wrap;html=1;fillColor=#f8cecc;strokeColor=#b85450;fontSize=12;verticalAlign=top;spacingTop=10;" vertex="1" parent="1">
          <mxGeometry x="50" y="200" width="150" height="80" as="geometry" />
        </mxCell>
        
        <mxCell id="backend" value="&lt;b&gt;EFund Backend API&lt;/b&gt;&lt;br/&gt;[System]&lt;br/&gt;&lt;br/&gt;REST API for business logic" style="rounded=1;whiteSpace=wrap;html=1;fillColor=#dae8fc;strokeColor=#6c8ebf;fontSize=12;verticalAlign=top;spacingTop=10;" vertex="1" parent="1">
          <mxGeometry x="950" y="350" width="180" height="80" as="geometry" />
        </mxCell>
        
        <!-- Main Container -->
        <mxCell id="frontend" value="EFund React Application" style="rounded=1;whiteSpace=wrap;html=1;fillColor=#e1d5e7;strokeColor=#9673a6;fontSize=14;fontStyle=1;verticalAlign=top;spacingTop=10;dashed=1;dashPattern=5 5;" vertex="1" parent="1">
          <mxGeometry x="250" y="80" width="650" height="620" as="geometry" />
        </mxCell>
        
        <!-- App Component -->
        <mxCell id="app" value="&lt;b&gt;App Component&lt;/b&gt;&lt;br/&gt;[React Component]&lt;br/&gt;&lt;br/&gt;Main application shell" style="rounded=1;whiteSpace=wrap;html=1;fillColor=#d5e8d4;strokeColor=#82b366;fontSize=12;verticalAlign=top;spacingTop=10;" vertex="1" parent="1">
          <mxGeometry x="450" y="120" width="180" height="60" as="geometry" />
        </mxCell>
        
        <!-- Core Infrastructure Container -->
        <mxCell id="coreContainer" value="Core Infrastructure" style="rounded=1;whiteSpace=wrap;html=1;fillColor=#fff2cc;strokeColor=#d6b656;fontSize=12;fontStyle=1;verticalAlign=top;spacingTop=10;dashed=1;dashPattern=3 3;" vertex="1" parent="1">
          <mxGeometry x="270" y="200" width="600" height="120" as="geometry" />
        </mxCell>
        
        <mxCell id="router" value="&lt;b&gt;React Router&lt;/b&gt;&lt;br/&gt;[BrowserRouter]&lt;br/&gt;&lt;br/&gt;Client-side routing" style="rounded=1;whiteSpace=wrap;html=1;fillColor=#d5e8d4;strokeColor=#82b366;fontSize=11;verticalAlign=top;spacingTop=8;" vertex="1" parent="1">
          <mxGeometry x="290" y="230" width="140" height="70" as="geometry" />
        </mxCell>
        
        <mxCell id="userContext" value="&lt;b&gt;User Context&lt;/b&gt;&lt;br/&gt;[React Context]&lt;br/&gt;&lt;br/&gt;Authentication state" style="rounded=1;whiteSpace=wrap;html=1;fillColor=#d5e8d4;strokeColor=#82b366;fontSize=11;verticalAlign=top;spacingTop=8;" vertex="1" parent="1">
          <mxGeometry x="450" y="230" width="140" height="70" as="geometry" />
        </mxCell>
        
        <mxCell id="queryProvider" value="&lt;b&gt;Query Provider&lt;/b&gt;&lt;br/&gt;[TanStack Query]&lt;br/&gt;&lt;br/&gt;Server state" style="rounded=1;whiteSpace=wrap;html=1;fillColor=#d5e8d4;strokeColor=#82b366;fontSize=11;verticalAlign=top;spacingTop=8;" vertex="1" parent="1">
          <mxGeometry x="610" y="230" width="140" height="70" as="geometry" />
        </mxCell>
        
        <!-- Shared Layer Container -->
        <mxCell id="sharedContainer" value="Shared Layer" style="rounded=1;whiteSpace=wrap;html=1;fillColor=#fff2cc;strokeColor=#d6b656;fontSize=12;fontStyle=1;verticalAlign=top;spacingTop=10;dashed=1;dashPattern=3 3;" vertex="1" parent="1">
          <mxGeometry x="270" y="340" width="600" height="120" as="geometry" />
        </mxCell>
        
        <mxCell id="uiComponents" value="&lt;b&gt;UI Components&lt;/b&gt;&lt;br/&gt;[React Components]&lt;br/&gt;&lt;br/&gt;Reusable components" style="rounded=1;whiteSpace=wrap;html=1;fillColor=#d5e8d4;strokeColor=#82b366;fontSize=11;verticalAlign=top;spacingTop=8;" vertex="1" parent="1">
          <mxGeometry x="290" y="370" width="180" height="70" as="geometry" />
        </mxCell>
        
        <mxCell id="storeServices" value="&lt;b&gt;State Stores&lt;/b&gt;&lt;br/&gt;[Zustand]&lt;br/&gt;&lt;br/&gt;Feature state" style="rounded=1;whiteSpace=wrap;html=1;fillColor=#d5e8d4;strokeColor=#82b366;fontSize=11;verticalAlign=top;spacingTop=8;" vertex="1" parent="1">
          <mxGeometry x="550" y="370" width="180" height="70" as="geometry" />
        </mxCell>
        
        <!-- Features Container -->
        <mxCell id="featuresContainer" value="Feature Modules" style="rounded=1;whiteSpace=wrap;html=1;fillColor=#fff2cc;strokeColor=#d6b656;fontSize=12;fontStyle=1;verticalAlign=top;spacingTop=10;dashed=1;dashPattern=3 3;" vertex="1" parent="1">
          <mxGeometry x="270" y="480" width="600" height="200" as="geometry" />
        </mxCell>
        
        <mxCell id="authFeature" value="&lt;b&gt;Authentication&lt;/b&gt;&lt;br/&gt;[Feature Module]&lt;br/&gt;&lt;br/&gt;Login &amp; OAuth" style="rounded=1;whiteSpace=wrap;html=1;fillColor=#d5e8d4;strokeColor=#82b366;fontSize=11;verticalAlign=top;spacingTop=8;" vertex="1" parent="1">
          <mxGeometry x="290" y="510" width="130" height="70" as="geometry" />
        </mxCell>
        
        <mxCell id="fundraisingFeature" value="&lt;b&gt;Fundraising&lt;/b&gt;&lt;br/&gt;[Feature Module]&lt;br/&gt;&lt;br/&gt;Campaign CRUD" style="rounded=1;whiteSpace=wrap;html=1;fillColor=#d5e8d4;strokeColor=#82b366;fontSize=11;verticalAlign=top;spacingTop=8;" vertex="1" parent="1">
          <mxGeometry x="440" y="510" width="130" height="70" as="geometry" />
        </mxCell>
        
        <mxCell id="usersFeature" value="&lt;b&gt;User Management&lt;/b&gt;&lt;br/&gt;[Feature Module]&lt;br/&gt;&lt;br/&gt;Profiles" style="rounded=1;whiteSpace=wrap;html=1;fillColor=#d5e8d4;strokeColor=#82b366;fontSize=11;verticalAlign=top;spacingTop=8;" vertex="1" parent="1">
          <mxGeometry x="290" y="600" width="130" height="70" as="geometry" />
        </mxCell>
        
        <mxCell id="reviewsFeature" value="&lt;b&gt;Reviews&lt;/b&gt;&lt;br/&gt;[Feature Module]&lt;br/&gt;&lt;br/&gt;Approval workflow" style="rounded=1;whiteSpace=wrap;html=1;fillColor=#d5e8d4;strokeColor=#82b366;fontSize=11;verticalAlign=top;spacingTop=8;" vertex="1" parent="1">
          <mxGeometry x="440" y="600" width="130" height="70" as="geometry" />
        </mxCell>
        
        <!-- Relationships -->
        <mxCell id="edge1" value="Configures" style="edgeStyle=orthogonalEdgeStyle;rounded=0;orthogonalLoop=1;jettySize=auto;html=1;exitX=0.25;exitY=1;exitDx=0;exitDy=0;entryX=0.5;entryY=0;entryDx=0;entryDy=0;labelPosition=center;verticalLabelPosition=middle;align=center;verticalAlign=middle;fontSize=10;" edge="1" parent="1" source="app" target="router">
          <mxGeometry relative="1" as="geometry" />
        </mxCell>
        
        <mxCell id="edge2" value="Provides" style="edgeStyle=orthogonalEdgeStyle;rounded=0;orthogonalLoop=1;jettySize=auto;html=1;exitX=0.5;exitY=1;exitDx=0;exitDy=0;entryX=0.5;entryY=0;entryDx=0;entryDy=0;labelPosition=center;verticalLabelPosition=middle;align=center;verticalAlign=middle;fontSize=10;" edge="1" parent="1" source="app" target="userContext">
          <mxGeometry relative="1" as="geometry" />
        </mxCell>
        
        <mxCell id="edge3" value="Provides" style="edgeStyle=orthogonalEdgeStyle;rounded=0;orthogonalLoop=1;jettySize=auto;html=1;exitX=0.75;exitY=1;exitDx=0;exitDy=0;entryX=0.5;entryY=0;entryDx=0;entryDy=0;labelPosition=center;verticalLabelPosition=middle;align=center;verticalAlign=middle;fontSize=10;" edge="1" parent="1" source="app" target="queryProvider">
          <mxGeometry relative="1" as="geometry" />
        </mxCell>
        
        <mxCell id="edge4" value="Routes to" style="edgeStyle=orthogonalEdgeStyle;rounded=0;orthogonalLoop=1;jettySize=auto;html=1;exitX=0.5;exitY=1;exitDx=0;exitDy=0;entryX=0.5;entryY=0;entryDx=0;entryDy=0;labelPosition=center;verticalLabelPosition=middle;align=center;verticalAlign=middle;fontSize=10;" edge="1" parent="1" source="router" target="authFeature">
          <mxGeometry relative="1" as="geometry">
            <mxPoint x="360" y="320" as="sourcePoint" />
            <mxPoint x="355" y="500" as="targetPoint" />
          </mxGeometry>
        </mxCell>
        
        <mxCell id="edge5" value="Uses" style="edgeStyle=orthogonalEdgeStyle;rounded=0;orthogonalLoop=1;jettySize=auto;html=1;exitX=1;exitY=0.5;exitDx=0;exitDy=0;entryX=0;entryY=0.5;entryDx=0;entryDy=0;labelPosition=center;verticalLabelPosition=middle;align=center;verticalAlign=middle;fontSize=10;" edge="1" parent="1" source="authFeature" target="googleOAuth">
          <mxGeometry relative="1" as="geometry">
            <mxPoint x="290" y="545" as="sourcePoint" />
            <mxPoint x="200" y="240" as="targetPoint" />
            <Array as="points">
              <mxPoint x="230" y="545" />
              <mxPoint x="230" y="240" />
            </Array>
          </mxGeometry>
        </mxCell>
        
        <mxCell id="edge6" value="Updates" style="edgeStyle=orthogonalEdgeStyle;rounded=0;orthogonalLoop=1;jettySize=auto;html=1;exitX=0.5;exitY=0;exitDx=0;exitDy=0;entryX=0.5;entryY=1;entryDx=0;entryDy=0;labelPosition=center;verticalLabelPosition=middle;align=center;verticalAlign=middle;fontSize=10;" edge="1" parent="1" source="authFeature" target="userContext">
          <mxGeometry relative="1" as="geometry">
            <mxPoint x="355" y="500" as="sourcePoint" />
            <mxPoint x="520" y="320" as="targetPoint" />
            <Array as="points">
              <mxPoint x="355" y="480" />
              <mxPoint x="520" y="480" />
              <mxPoint x="520" y="320" />
            </Array>
          </mxGeometry>
        </mxCell>
        
        <mxCell id="edge7" value="Uses" style="edgeStyle=orthogonalEdgeStyle;rounded=0;orthogonalLoop=1;jettySize=auto;html=1;exitX=0.5;exitY=0;exitDx=0;exitDy=0;entryX=0.5;entryY=1;entryDx=0;entryDy=0;labelPosition=center;verticalLabelPosition=middle;align=center;verticalAlign=middle;fontSize=10;" edge="1" parent="1" source="authFeature" target="uiComponents">
          <mxGeometry relative="1" as="geometry">
            <mxPoint x="355" y="500" as="sourcePoint" />
            <mxPoint x="380" y="450" as="targetPoint" />
            <Array as="points">
              <mxPoint x="355" y="480" />
              <mxPoint x="380" y="480" />
              <mxPoint x="380" y="450" />
            </Array>
          </mxGeometry>
        </mxCell>
        
        <mxCell id="edge8" value="Uses" style="edgeStyle=orthogonalEdgeStyle;rounded=0;orthogonalLoop=1;jettySize=auto;html=1;exitX=1;exitY=0;exitDx=0;exitDy=0;entryX=0;entryY=1;entryDx=0;entryDy=0;labelPosition=center;verticalLabelPosition=middle;align=center;verticalAlign=middle;fontSize=10;" edge="1" parent="1" source="authFeature" target="storeServices">
          <mxGeometry relative="1" as="geometry">
            <mxPoint x="420" y="500" as="sourcePoint" />
            <mxPoint x="550" y="450" as="targetPoint" />
            <Array as="points">
              <mxPoint x="420" y="480" />
              <mxPoint x="550" y="480" />
              <mxPoint x="550" y="450" />
            </Array>
          </mxGeometry>
        </mxCell>
        
        <mxCell id="edge9" value="Requests" style="edgeStyle=orthogonalEdgeStyle;rounded=0;orthogonalLoop=1;jettySize=auto;html=1;exitX=1;exitY=0.5;exitDx=0;exitDy=0;entryX=0;entryY=0.5;entryDx=0;entryDy=0;labelPosition=center;verticalLabelPosition=middle;align=center;verticalAlign=middle;fontSize=10;" edge="1" parent="1" source="fundraisingFeature" target="backend">
          <mxGeometry relative="1" as="geometry">
            <mxPoint x="570" y="545" as="sourcePoint" />
            <mxPoint x="950" y="390" as="targetPoint" />
            <Array as="points">
              <mxPoint x="880" y="545" />
              <mxPoint x="880" y="390" />
            </Array>
          </mxGeometry>
        </mxCell>
        
        <mxCell id="edge10" value="Manages" style="edgeStyle=orthogonalEdgeStyle;rounded=0;orthogonalLoop=1;jettySize=auto;html=1;exitX=1;exitY=0.5;exitDx=0;exitDy=0;entryX=0;entryY=0;entryDx=0;entryDy=0;labelPosition=center;verticalLabelPosition=middle;align=center;verticalAlign=middle;fontSize=10;" edge="1" parent="1" source="queryProvider" target="backend">
          <mxGeometry relative="1" as="geometry">
            <mxPoint x="750" y="265" as="sourcePoint" />
            <mxPoint x="950" y="350" as="targetPoint" />
            <Array as="points">
              <mxPoint x="880" y="265" />
              <mxPoint x="880" y="350" />
            </Array>
          </mxGeometry>
        </mxCell>
        
      </root>
    </mxGraphModel>
  </diagram>
</mxfile> 